<svg id="Layer_1" data-name="Layer 1" xmlns="http://www.w3.org/2000/svg" viewBox="0 0 377.4 67.9"><defs><style>.cls-1{fill:#3665ef;}.cls-2{fill:none;}</style></defs><title>CS Logo - tm</title><path d="M67,28.3a11.62,11.62,0,0,0-3.2-6,9.27,9.27,0,0,0-6.5-2.2,9.8,9.8,0,0,0-5.2,1.3,10.64,10.64,0,0,0-3.7,3.3,15,15,0,0,0-2.2,4.6,18,18,0,0,0,0,10.6,16.33,16.33,0,0,0,2.2,4.6,10.64,10.64,0,0,0,3.7,3.3,10.82,10.82,0,0,0,5.2,1.3,8.57,8.57,0,0,0,3.6-.7,10.49,10.49,0,0,0,3-2,11.59,11.59,0,0,0,2.2-3.1,12.54,12.54,0,0,0,1.1-3.9h4.2a16.62,16.62,0,0,1-4.5,9.7c-2.4,2.4-5.6,3.5-9.5,3.5a16.66,16.66,0,0,1-6.9-1.4,12.83,12.83,0,0,1-5-3.9,15.73,15.73,0,0,1-3.1-5.7,22.82,22.82,0,0,1,0-14,15.73,15.73,0,0,1,3.1-5.7,16.07,16.07,0,0,1,5-3.9,15.21,15.21,0,0,1,6.9-1.4,15.36,15.36,0,0,1,9.3,2.9c2.5,1.9,4,4.9,4.5,8.8Z"/><path d="M91.6,16.6A16.66,16.66,0,0,1,98.5,18a15,15,0,0,1,5,3.9,15.73,15.73,0,0,1,3.1,5.7,22.82,22.82,0,0,1,0,14,15.73,15.73,0,0,1-3.1,5.7,16.07,16.07,0,0,1-5,3.9,17.7,17.7,0,0,1-13.8,0,12.83,12.83,0,0,1-5-3.9,15.73,15.73,0,0,1-3.1-5.7,22.82,22.82,0,0,1,0-14,15.73,15.73,0,0,1,3.1-5.7,16.07,16.07,0,0,1,5-3.9A16.66,16.66,0,0,1,91.6,16.6Zm0,3.5a9.8,9.8,0,0,0-5.2,1.3,10.64,10.64,0,0,0-3.7,3.3,15,15,0,0,0-2.2,4.6,18,18,0,0,0,0,10.6,16.33,16.33,0,0,0,2.2,4.6,10.64,10.64,0,0,0,3.7,3.3,10.82,10.82,0,0,0,5.2,1.3,9.8,9.8,0,0,0,5.2-1.3,10.64,10.64,0,0,0,3.7-3.3,15,15,0,0,0,2.2-4.6,18,18,0,0,0,0-10.6,16.33,16.33,0,0,0-2.2-4.6,10.64,10.64,0,0,0-3.7-3.3A9.8,9.8,0,0,0,91.6,20.1Z"/><path d="M143.8,51.6H140V45.1h-.1a9.53,9.53,0,0,1-1.9,3,12.78,12.78,0,0,1-2.9,2.3,21.69,21.69,0,0,1-3.5,1.5,12.19,12.19,0,0,1-3.7.5,16.18,16.18,0,0,1-6.8-1.4,13,13,0,0,1-4.8-3.9,16.86,16.86,0,0,1-2.8-5.7,26.9,26.9,0,0,1,0-13.8,16.87,16.87,0,0,1,2.8-5.7,14,14,0,0,1,4.8-3.9,15.86,15.86,0,0,1,6.8-1.4,15,15,0,0,1,3.7.5,14.34,14.34,0,0,1,3.4,1.4,10.44,10.44,0,0,1,2.8,2.3,11.3,11.3,0,0,1,1.9,3.2h.1V4.6H144v47Zm-27.2-17a22.42,22.42,0,0,0,.6,5.2,13.68,13.68,0,0,0,2,4.6,10,10,0,0,0,3.5,3.3,9.22,9.22,0,0,0,5.1,1.3,10.8,10.8,0,0,0,5.6-1.3,13.09,13.09,0,0,0,3.7-3.3,14.61,14.61,0,0,0,2-4.6,22.83,22.83,0,0,0,0-10.4,13.68,13.68,0,0,0-2-4.6,9.83,9.83,0,0,0-3.7-3.3,10.8,10.8,0,0,0-5.6-1.3,9.22,9.22,0,0,0-5.1,1.3,12.28,12.28,0,0,0-3.5,3.3,14.61,14.61,0,0,0-2,4.6A23.06,23.06,0,0,0,116.6,34.6Z"/><path d="M154.1,35.7a18.76,18.76,0,0,0,.6,4.6,13,13,0,0,0,2,4.3,12,12,0,0,0,3.5,3.2,10.14,10.14,0,0,0,5.1,1.3,10,10,0,0,0,7.1-2.4,13.1,13.1,0,0,0,3.6-6.3h4.2a17,17,0,0,1-4.8,9c-2.3,2.1-5.7,3.2-10,3.2a16.8,16.8,0,0,1-7-1.4,12.2,12.2,0,0,1-4.8-3.9,17.67,17.67,0,0,1-2.7-5.7,26.11,26.11,0,0,1-.9-6.9,25,25,0,0,1,.9-6.6,18.2,18.2,0,0,1,2.7-5.8,12.82,12.82,0,0,1,4.8-4.1,15.37,15.37,0,0,1,7-1.5,13.27,13.27,0,0,1,11.7,5.9,17.6,17.6,0,0,1,2.6,6.1,32.6,32.6,0,0,1,.7,7Zm22-3.4a13.3,13.3,0,0,0-.8-4.5,14.71,14.71,0,0,0-2.1-3.9,10.18,10.18,0,0,0-3.4-2.7,10.63,10.63,0,0,0-9,0,12.67,12.67,0,0,0-3.4,2.7,12.36,12.36,0,0,0-2.2,3.9,24.6,24.6,0,0,0-1.1,4.5Z"/><path d="M188.3,51.6v-7h5.5v7Z"/><path d="M224.6,27.6a6.71,6.71,0,0,0-.8-3.3,7.1,7.1,0,0,0-1.9-2.3,8.18,8.18,0,0,0-2.8-1.4,12.67,12.67,0,0,0-3.4-.4,13.33,13.33,0,0,0-2.8.3,8.25,8.25,0,0,0-2.6,1,6.56,6.56,0,0,0-1.9,1.8,4.86,4.86,0,0,0-.7,2.8,3.51,3.51,0,0,0,.7,2.3,6.48,6.48,0,0,0,1.7,1.6,16.27,16.27,0,0,0,2.3,1.1c.8.3,1.6.5,2.3.7l5.5,1.3a14,14,0,0,1,3.5,1,15.72,15.72,0,0,1,3.1,1.8,8.83,8.83,0,0,1,2.2,2.8,8,8,0,0,1,.9,3.9,8.1,8.1,0,0,1-1.3,4.7,9.79,9.79,0,0,1-3.2,3.2,13,13,0,0,1-4.4,1.7,26.07,26.07,0,0,1-4.8.5c-4,0-7.2-.9-9.7-2.8s-3.9-4.9-4.3-9.1h4.2a8.42,8.42,0,0,0,3.1,6.4,11.41,11.41,0,0,0,7,2.1,16.28,16.28,0,0,0,3.1-.3,9.77,9.77,0,0,0,3-1.1,7.4,7.4,0,0,0,2.3-2,4.86,4.86,0,0,0,.9-3,4.58,4.58,0,0,0-2.3-4.2,26.78,26.78,0,0,0-2.4-1.2,27.59,27.59,0,0,0-2.7-.8l-5.3-1.2c-1.4-.4-2.6-.8-3.8-1.2a9.76,9.76,0,0,1-3-1.7,6.93,6.93,0,0,1-2-2.5,8.15,8.15,0,0,1-.7-3.7,7.83,7.83,0,0,1,1.2-4.4,10.71,10.71,0,0,1,3-3,13.49,13.49,0,0,1,4.1-1.6,17.26,17.26,0,0,1,4.5-.5,15.07,15.07,0,0,1,4.8.7,10.32,10.32,0,0,1,3.9,2,11.28,11.28,0,0,1,2.7,3.4,12.1,12.1,0,0,1,1.1,4.8h-4.3v-.2Z"/><path d="M259.9,28.3a11.62,11.62,0,0,0-3.2-6,9.27,9.27,0,0,0-6.5-2.2,9.8,9.8,0,0,0-5.2,1.3,10.64,10.64,0,0,0-3.7,3.3,15,15,0,0,0-2.2,4.6,18,18,0,0,0,0,10.6,16.33,16.33,0,0,0,2.2,4.6,10.64,10.64,0,0,0,3.7,3.3,10.82,10.82,0,0,0,5.2,1.3,8.57,8.57,0,0,0,3.6-.7,10.49,10.49,0,0,0,3-2,11.59,11.59,0,0,0,2.2-3.1,12.54,12.54,0,0,0,1.1-3.9h4.2a16.62,16.62,0,0,1-4.5,9.7c-2.4,2.4-5.6,3.5-9.5,3.5a16.66,16.66,0,0,1-6.9-1.4,12.83,12.83,0,0,1-5-3.9,15.73,15.73,0,0,1-3.1-5.7,22.82,22.82,0,0,1,0-14,15.73,15.73,0,0,1,3.1-5.7,16.07,16.07,0,0,1,5-3.9,15.21,15.21,0,0,1,6.9-1.4,15.36,15.36,0,0,1,9.3,2.9c2.5,1.9,4,4.9,4.5,8.8Z"/><path d="M269.7,28a11.29,11.29,0,0,1,1.3-5.1,10.26,10.26,0,0,1,2.9-3.6,11.39,11.39,0,0,1,4.3-2,22.94,22.94,0,0,1,9.9-.3,10.85,10.85,0,0,1,4,1.6,8.48,8.48,0,0,1,2.9,3.3,12.66,12.66,0,0,1,1.1,5.6V45.6c0,1.7.8,2.5,2.4,2.5a2.77,2.77,0,0,0,1.3-.3v3.5a6.88,6.88,0,0,1-1.3.2c-.4,0-.8.1-1.4.1a5.67,5.67,0,0,1-2.5-.4,4.43,4.43,0,0,1-1.5-1.2,4,4,0,0,1-.7-1.9,16.59,16.59,0,0,1-.2-2.4h-.1a17.28,17.28,0,0,1-2.3,2.9,8.6,8.6,0,0,1-2.6,2.1A10.23,10.23,0,0,1,284,52a17.51,17.51,0,0,1-4.3.5,15.1,15.1,0,0,1-4.4-.6,10.15,10.15,0,0,1-3.6-1.8,8.34,8.34,0,0,1-2.4-3.1,10.17,10.17,0,0,1-.9-4.4A8.68,8.68,0,0,1,270,37a9.46,9.46,0,0,1,4.2-3.1,24.22,24.22,0,0,1,5.9-1.5c2.2-.3,4.4-.6,6.6-.8.9-.1,1.6-.2,2.3-.3a3.38,3.38,0,0,0,1.6-.7,3,3,0,0,0,1-1.4A6.65,6.65,0,0,0,292,27a7.28,7.28,0,0,0-.7-3.5,5.54,5.54,0,0,0-1.9-2.1,8.62,8.62,0,0,0-2.8-1.1,18.27,18.27,0,0,0-3.5-.3,10.44,10.44,0,0,0-6.5,1.9c-1.7,1.3-2.5,3.3-2.6,6h-4.3V28Zm22.2,5h-.1a3,3,0,0,1-1.5,1.1,19.45,19.45,0,0,1-2,.5c-1.8.3-3.6.6-5.4.8a25.49,25.49,0,0,0-5.1,1.1,10.71,10.71,0,0,0-3.8,2.1,5,5,0,0,0-1.5,3.9,6.09,6.09,0,0,0,.6,2.8,6.84,6.84,0,0,0,1.7,2.1,9.46,9.46,0,0,0,2.4,1.4,9.18,9.18,0,0,0,2.8.5,13.27,13.27,0,0,0,4.5-.7,11.65,11.65,0,0,0,3.8-2.1,9.94,9.94,0,0,0,2.6-3.4,10.64,10.64,0,0,0,1-4.5Z"/><path d="M304.2,17.6h4.2v5.9h.1a10.18,10.18,0,0,1,4.2-5,11.91,11.91,0,0,1,6.7-1.9,17.24,17.24,0,0,1,6,.9,9.91,9.91,0,0,1,3.9,2.6,9.28,9.28,0,0,1,2,4.1,22.58,22.58,0,0,1,.6,5.5V51.6h-4.2V30.4a18.4,18.4,0,0,0-.4-4.1,8.91,8.91,0,0,0-1.4-3.3,7.46,7.46,0,0,0-2.7-2.2A10.14,10.14,0,0,0,319,20a9.86,9.86,0,0,0-4.4.9,10,10,0,0,0-3.3,2.4,11.16,11.16,0,0,0-2.1,3.7,13.89,13.89,0,0,0-.8,4.6V51.4h-4.2V17.6Z"/><path d="M352.68,7.58v-2h9.07v2h-3.32v9H356v-9Z"/><path d="M366.44,5.54l2.59,7.6h0l2.45-7.6h3.42V16.6h-2.28V8.76h0l-2.71,7.84H368l-2.71-7.76h0V16.6H363V5.54Z"/><path class="cls-1" d="M6.9,5.8a10.66,10.66,0,0,0-1.5,6v9.8c0,1.3-.1,2.6-.2,3.9a11.37,11.37,0,0,1-.7,3.4A7,7,0,0,1,3,31.3a3.24,3.24,0,0,1-2.4.9v3.5a3.24,3.24,0,0,1,2.4.9A5.8,5.8,0,0,1,4.5,39a15.67,15.67,0,0,1,.7,3.4c.1,1.3.2,2.6.2,3.9V56a10.66,10.66,0,0,0,1.5,6,4.89,4.89,0,0,0,4.3,2.2v-.3h3.3V60.6H13.2a2.35,2.35,0,0,1-1.7-.6,5.83,5.83,0,0,1-1.1-1.5,6.39,6.39,0,0,1-.6-2.2,22.75,22.75,0,0,1-.2-2.6V44.5A15.56,15.56,0,0,0,9,39.9a13.87,13.87,0,0,0-1.4-3.2,7.85,7.85,0,0,0-1.5-1.9A5.29,5.29,0,0,0,5,33.9v-.1c.2-.2.6-.5,1.1-.9A6.27,6.27,0,0,0,7.6,31,13.87,13.87,0,0,0,9,27.8a15.1,15.1,0,0,0,.6-4.6V13.9a21.05,21.05,0,0,1,.2-2.5,7.09,7.09,0,0,1,.6-2.2,4.18,4.18,0,0,1,1.1-1.5,2.52,2.52,0,0,1,1.7-.6h1.3V3.6H11.2A4.78,4.78,0,0,0,6.9,5.8Z"/><polygon class="cls-1" points="36.5 3.6 16.3 52.6 19.8 52.6 39.9 3.6 36.5 3.6"/><polygon class="cls-1" points="11.2 64.2 11.2 64.2 14.5 64.2 14.5 64.1 14.5 63.9 11.2 63.9 11.2 64.2"/><path class="cls-1" d="M341.7,3.6A4.89,4.89,0,0,1,346,5.8a10.66,10.66,0,0,1,1.5,6v9.8c0,1.3.1,2.6.2,3.9a15.67,15.67,0,0,0,.7,3.4,5.8,5.8,0,0,0,1.5,2.4,3.24,3.24,0,0,0,2.4.9v3.5a3.24,3.24,0,0,0-2.4.9,7,7,0,0,0-1.5,2.4,11.37,11.37,0,0,0-.7,3.4c-.1,1.3-.2,2.6-.2,3.9v9.8a10.66,10.66,0,0,1-1.5,6,4.78,4.78,0,0,1-4.3,2.2h-3.3V60.8h1.3a2.52,2.52,0,0,0,1.7-.6,4.18,4.18,0,0,0,1.1-1.5,6.39,6.39,0,0,0,.6-2.2,21.12,21.12,0,0,0,.2-2.6V44.7a15.1,15.1,0,0,1,.6-4.6,13.87,13.87,0,0,1,1.4-3.2,6.27,6.27,0,0,1,1.5-1.9c.5-.4.9-.7,1.1-.9V34a5.29,5.29,0,0,1-1.1-.9,7.85,7.85,0,0,1-1.5-1.9,16.11,16.11,0,0,1-1.4-3.2,15.56,15.56,0,0,1-.6-4.6V14.1a19.48,19.48,0,0,0-.2-2.5,7.94,7.94,0,0,0-.6-2.2,5.83,5.83,0,0,0-1.1-1.5,2.52,2.52,0,0,0-1.7-.6h-1.3V3.8h3.3Z"/><rect class="cls-1" x="338.4" y="3.6" width="3.3" height="0.4"/><rect class="cls-2" width="377.4" height="67.9"/></svg>