<?xml version="1.0" encoding="utf-8"?>
<!-- Generator: Adobe Illustrator 24.1.0, SVG Export Plug-In . SVG Version: 6.00 Build 0)  -->
<svg version="1.1" id="Layer_1" xmlns="http://www.w3.org/2000/svg" xmlns:xlink="http://www.w3.org/1999/xlink" x="0px" y="0px"
	 viewBox="0 0 377.4 67.9" style="enable-background:new 0 0 377.4 67.9;" xml:space="preserve">
<style type="text/css">
	.st0{fill:#FFFFFF;}
	.st1{fill:#3665EF;}
	.st2{fill:none;}
</style>
<path class="st0" d="M67,28.3c-0.4-2.3-1.6-4.4-3.2-6c-1.8-1.5-4.1-2.3-6.5-2.2c-1.8-0.1-3.6,0.4-5.2,1.3c-1.5,0.8-2.7,1.9-3.7,3.3
	c-1,1.4-1.7,3-2.2,4.6c-1.1,3.5-1.1,7.1,0,10.6c0.5,1.6,1.2,3.2,2.2,4.6c1,1.4,2.2,2.5,3.7,3.3c1.6,0.9,3.4,1.3,5.2,1.3
	c1.2,0,2.5-0.2,3.6-0.7c1.1-0.5,2.1-1.2,3-2c0.9-0.9,1.6-2,2.2-3.1c0.6-1.2,0.9-2.5,1.1-3.9h4.2c-0.4,3.6-2,7.1-4.5,9.7
	c-2.4,2.4-5.6,3.5-9.5,3.5c-2.4,0-4.7-0.4-6.9-1.4c-2-0.9-3.7-2.2-5-3.9c-1.4-1.7-2.5-3.6-3.1-5.7c-1.5-4.6-1.5-9.4,0-14
	c0.6-2.1,1.7-4,3.1-5.7c1.4-1.6,3.1-2.9,5-3.9c2.2-1,4.5-1.5,6.9-1.4c3.3-0.1,6.6,0.9,9.3,2.9c2.5,1.9,4,4.9,4.5,8.8L67,28.3z"/>
<path class="st0" d="M91.6,16.6c2.4,0,4.7,0.4,6.9,1.4c1.9,0.9,3.6,2.3,5,3.9c1.4,1.7,2.5,3.6,3.1,5.7c1.5,4.6,1.5,9.4,0,14
	c-0.6,2.1-1.7,4-3.1,5.7c-1.4,1.6-3.1,2.9-5,3.9c-4.4,1.9-9.4,1.9-13.8,0c-2-0.9-3.7-2.2-5-3.9c-1.4-1.7-2.5-3.6-3.1-5.7
	c-1.5-4.6-1.5-9.4,0-14c0.6-2.1,1.7-4,3.1-5.7c1.4-1.6,3.1-2.9,5-3.9C86.9,17,89.2,16.6,91.6,16.6z M91.6,20.1
	c-1.8-0.1-3.6,0.4-5.2,1.3c-1.5,0.8-2.7,1.9-3.7,3.3c-1,1.4-1.7,3-2.2,4.6c-1.1,3.5-1.1,7.1,0,10.6c0.5,1.6,1.2,3.2,2.2,4.6
	c1,1.4,2.2,2.5,3.7,3.3c1.6,0.9,3.4,1.3,5.2,1.3c1.8,0.1,3.6-0.4,5.2-1.3c1.5-0.8,2.7-1.9,3.7-3.3c1-1.4,1.7-3,2.2-4.6
	c1.1-3.5,1.1-7.1,0-10.6c-0.5-1.6-1.2-3.2-2.2-4.6c-1-1.4-2.2-2.5-3.7-3.3C95.2,20.5,93.4,20,91.6,20.1z"/>
<path class="st0" d="M143.8,51.6H140v-6.5h-0.1c-0.4,1.1-1.1,2.1-1.9,3c-0.8,0.9-1.8,1.7-2.9,2.3c-1.1,0.6-2.3,1.1-3.5,1.5
	c-1.2,0.4-2.4,0.5-3.7,0.5c-2.3,0-4.7-0.4-6.8-1.4c-1.9-0.9-3.5-2.2-4.8-3.9c-1.3-1.7-2.2-3.6-2.8-5.7c-1.2-4.5-1.2-9.3,0-13.8
	c0.6-2.1,1.5-4,2.8-5.7c1.3-1.6,2.9-3,4.8-3.9c2.1-1,4.5-1.4,6.8-1.4c1.2,0,2.5,0.2,3.7,0.5c1.2,0.3,2.3,0.8,3.4,1.4
	c1.1,0.6,2,1.4,2.8,2.3c0.8,1,1.4,2,1.9,3.2h0.1V4.6h4.2v47H143.8z M116.6,34.6c0,1.8,0.2,3.5,0.6,5.2c0.4,1.6,1.1,3.2,2,4.6
	c0.9,1.4,2.1,2.5,3.5,3.3c1.5,0.9,3.3,1.4,5.1,1.3c1.9,0.1,3.9-0.4,5.6-1.3c1.4-0.9,2.7-2,3.7-3.3c0.9-1.4,1.6-3,2-4.6
	c0.8-3.4,0.8-7,0-10.4c-0.4-1.6-1.1-3.2-2-4.6c-0.9-1.4-2.2-2.5-3.7-3.3c-1.7-0.9-3.7-1.4-5.6-1.3c-1.8-0.1-3.6,0.4-5.1,1.3
	c-1.4,0.9-2.6,2-3.5,3.3c-0.9,1.4-1.6,3-2,4.6C116.8,31.1,116.6,32.8,116.6,34.6z"/>
<path class="st0" d="M154.1,35.7c0,1.6,0.2,3.1,0.6,4.6c0.4,1.5,1.1,3,2,4.3c0.9,1.3,2.1,2.4,3.5,3.2c1.6,0.9,3.3,1.3,5.1,1.3
	c2.6,0.2,5.1-0.7,7.1-2.4c1.8-1.7,3-3.9,3.6-6.3h4.2c-0.6,3.4-2.3,6.6-4.8,9c-2.3,2.1-5.7,3.2-10,3.2c-2.4,0-4.8-0.4-7-1.4
	c-1.9-0.9-3.6-2.2-4.8-3.9c-1.2-1.7-2.1-3.7-2.7-5.7c-0.6-2.2-0.9-4.6-0.9-6.9c0-2.2,0.3-4.4,0.9-6.6c0.6-2.1,1.5-4,2.7-5.8
	c1.2-1.7,2.9-3.2,4.8-4.1c2.2-1,4.6-1.6,7-1.5c4.7-0.2,9.1,2,11.7,5.9c1.2,1.9,2.1,3.9,2.6,6.1c0.5,2.3,0.7,4.6,0.7,7L154.1,35.7z
	 M176.1,32.3c0-1.5-0.3-3.1-0.8-4.5c-0.5-1.4-1.2-2.7-2.1-3.9c-0.9-1.1-2.1-2.1-3.4-2.7c-2.9-1.3-6.1-1.3-9,0
	c-1.3,0.7-2.4,1.6-3.4,2.7c-1,1.2-1.7,2.5-2.2,3.9c-0.5,1.5-0.9,3-1.1,4.5H176.1z"/>
<path class="st0" d="M188.3,51.6v-7h5.5v7H188.3z"/>
<path class="st0" d="M224.6,27.6c0-1.2-0.3-2.3-0.8-3.3c-0.5-0.9-1.1-1.7-1.9-2.3c-0.8-0.6-1.8-1.1-2.8-1.4
	c-1.1-0.3-2.3-0.4-3.4-0.4c-0.9,0-1.9,0.1-2.8,0.3c-0.9,0.2-1.8,0.5-2.6,1c-0.7,0.5-1.4,1.1-1.9,1.8c-0.5,0.8-0.8,1.8-0.7,2.8
	c0,0.8,0.2,1.6,0.7,2.3c0.5,0.6,1,1.2,1.7,1.6c0.7,0.4,1.5,0.8,2.3,1.1c0.8,0.3,1.6,0.5,2.3,0.7l5.5,1.3c1.2,0.2,2.4,0.5,3.5,1
	c1.1,0.5,2.1,1.1,3.1,1.8c0.9,0.8,1.7,1.7,2.2,2.8c0.6,1.2,0.9,2.5,0.9,3.9c0.1,1.7-0.4,3.3-1.3,4.7c-0.8,1.3-1.9,2.4-3.2,3.2
	c-1.4,0.8-2.8,1.4-4.4,1.7c-1.6,0.3-3.2,0.5-4.8,0.5c-4,0-7.2-0.9-9.7-2.8s-3.9-4.9-4.3-9.1h4.2c0,2.5,1.2,4.8,3.1,6.4
	c2,1.4,4.5,2.2,7,2.1c1,0,2.1-0.1,3.1-0.3c1.1-0.2,2.1-0.6,3-1.1c0.9-0.5,1.7-1.2,2.3-2c0.6-0.9,0.9-1.9,0.9-3
	c0.1-1.7-0.8-3.3-2.3-4.2c-0.8-0.4-1.6-0.8-2.4-1.2c-0.9-0.3-1.8-0.6-2.7-0.8l-5.3-1.2c-1.4-0.4-2.6-0.8-3.8-1.2
	c-1.1-0.4-2.1-1-3-1.7c-0.9-0.7-1.5-1.5-2-2.5c-0.5-1.2-0.8-2.4-0.7-3.7c0-1.6,0.4-3.1,1.2-4.4c0.8-1.2,1.8-2.2,3-3
	c1.3-0.8,2.7-1.3,4.1-1.6c1.5-0.4,3-0.5,4.5-0.5c1.6,0,3.2,0.2,4.8,0.7c1.4,0.4,2.8,1.1,3.9,2c1.1,0.9,2,2.1,2.7,3.4
	c0.7,1.5,1.1,3.1,1.1,4.8h-4.3L224.6,27.6L224.6,27.6z"/>
<path class="st0" d="M259.9,28.3c-0.4-2.3-1.6-4.4-3.2-6c-1.8-1.5-4.1-2.3-6.5-2.2c-1.8-0.1-3.6,0.4-5.2,1.3
	c-1.5,0.8-2.7,1.9-3.7,3.3c-1,1.4-1.7,3-2.2,4.6c-1.1,3.5-1.1,7.1,0,10.6c0.5,1.6,1.2,3.2,2.2,4.6c1,1.4,2.2,2.5,3.7,3.3
	c1.6,0.9,3.4,1.3,5.2,1.3c1.2,0,2.5-0.2,3.6-0.7c1.1-0.5,2.1-1.2,3-2c0.9-0.9,1.6-2,2.2-3.1c0.6-1.2,0.9-2.5,1.1-3.9h4.2
	c-0.4,3.6-2,7.1-4.5,9.7c-2.4,2.4-5.6,3.5-9.5,3.5c-2.4,0-4.7-0.4-6.9-1.4c-2-0.9-3.7-2.2-5-3.9c-1.4-1.7-2.5-3.6-3.1-5.7
	c-1.5-4.6-1.5-9.4,0-14c0.6-2.1,1.7-4,3.1-5.7c1.4-1.6,3.1-2.9,5-3.9c2.2-1,4.5-1.5,6.9-1.4c3.3-0.1,6.6,0.9,9.3,2.9
	c2.5,1.9,4,4.9,4.5,8.8L259.9,28.3z"/>
<path class="st0" d="M269.7,28c0-1.8,0.5-3.5,1.3-5.1c0.7-1.4,1.7-2.6,2.9-3.6c1.3-1,2.7-1.6,4.3-2c3.2-0.8,6.6-0.9,9.9-0.3
	c1.4,0.3,2.8,0.8,4,1.6c1.2,0.8,2.2,2,2.9,3.3c0.8,1.8,1.2,3.7,1.1,5.6v18.1c0,1.7,0.8,2.5,2.4,2.5c0.5,0,0.9-0.1,1.3-0.3v3.5
	c-0.4,0.1-0.9,0.2-1.3,0.2c-0.4,0-0.8,0.1-1.4,0.1c-0.9,0.1-1.7-0.1-2.5-0.4c-0.6-0.3-1.1-0.7-1.5-1.2c-0.4-0.6-0.6-1.2-0.7-1.9
	c-0.1-0.8-0.2-1.6-0.2-2.4h-0.1c-0.7,1-1.4,2-2.3,2.9c-0.7,0.9-1.6,1.6-2.6,2.1c-1,0.6-2.1,1.1-3.2,1.3c-1.4,0.3-2.9,0.5-4.3,0.5
	c-1.5,0-3-0.2-4.4-0.6c-1.3-0.4-2.5-1-3.6-1.8c-1-0.8-1.9-1.9-2.4-3.1c-0.6-1.4-0.9-2.9-0.9-4.4c-0.1-2,0.4-4,1.6-5.6
	c1.1-1.4,2.5-2.5,4.2-3.1c1.9-0.7,3.9-1.3,5.9-1.5c2.2-0.3,4.4-0.6,6.6-0.8c0.9-0.1,1.6-0.2,2.3-0.3c0.6-0.1,1.1-0.3,1.6-0.7
	c0.5-0.4,0.8-0.8,1-1.4c0.3-0.7,0.4-1.4,0.4-2.2c0.1-1.2-0.2-2.4-0.7-3.5c-0.4-0.9-1.1-1.6-1.9-2.1c-0.9-0.5-1.8-0.9-2.8-1.1
	c-1.2-0.2-2.3-0.3-3.5-0.3c-2.3-0.1-4.6,0.6-6.5,1.9c-1.7,1.3-2.5,3.3-2.6,6h-4.3V28z M291.9,33h-0.1c-0.4,0.5-0.9,0.9-1.5,1.1
	c-0.7,0.2-1.3,0.4-2,0.5c-1.8,0.3-3.6,0.6-5.4,0.8c-1.7,0.2-3.4,0.6-5.1,1.1c-1.4,0.4-2.7,1.1-3.8,2.1c-1,1-1.6,2.4-1.5,3.9
	c0,1,0.2,1.9,0.6,2.8c0.4,0.8,1,1.5,1.7,2.1c0.7,0.6,1.5,1.1,2.4,1.4c0.9,0.3,1.8,0.5,2.8,0.5c1.5,0,3.1-0.2,4.5-0.7
	c1.4-0.5,2.7-1.2,3.8-2.1c1.1-0.9,2-2.1,2.6-3.4c0.7-1.4,1-2.9,1-4.5V33z"/>
<path class="st0" d="M304.2,17.6h4.2v5.9h0.1c0.8-2.1,2.3-3.8,4.2-5c2-1.3,4.3-1.9,6.7-1.9c2-0.1,4.1,0.2,6,0.9
	c1.5,0.5,2.8,1.4,3.9,2.6c1,1.2,1.7,2.6,2,4.1c0.4,1.8,0.6,3.6,0.6,5.5v21.9h-4.2V30.4c0-1.4-0.1-2.8-0.4-4.1
	c-0.2-1.2-0.7-2.3-1.4-3.3c-0.7-0.9-1.6-1.7-2.7-2.2c-1.3-0.6-2.8-0.8-4.2-0.8c-1.5,0-3,0.3-4.4,0.9c-1.3,0.6-2.4,1.4-3.3,2.4
	c-0.9,1.1-1.6,2.3-2.1,3.7c-0.5,1.5-0.8,3-0.8,4.6v19.8h-4.2V17.6z"/>
<path class="st0" d="M352.7,7.6v-2h9.1v2h-3.3v9H356v-9H352.7z"/>
<path class="st0" d="M366.4,5.5l2.6,7.6l0,0l2.5-7.6h3.4v11.1h-2.3V8.8l0,0l-2.7,7.8H368l-2.7-7.8l0,0v7.8H363V5.5H366.4z"/>
<path class="st1" d="M6.9,5.8c-1.1,1.8-1.6,3.9-1.5,6v9.8c0,1.3-0.1,2.6-0.2,3.9c-0.1,1.2-0.3,2.3-0.7,3.4c-0.3,0.9-0.8,1.7-1.5,2.4
	c-0.6,0.6-1.5,0.9-2.4,0.9v3.5c0.9,0,1.8,0.3,2.4,0.9c0.7,0.7,1.2,1.5,1.5,2.4c0.4,1.1,0.6,2.2,0.7,3.4c0.1,1.3,0.2,2.6,0.2,3.9V56
	c-0.1,2.1,0.4,4.2,1.5,6c0.9,1.4,2.6,2.3,4.3,2.2v-0.3h3.3v-3.3h-1.3c-0.6,0-1.2-0.2-1.7-0.6c-0.4-0.4-0.8-0.9-1.1-1.5
	c-0.3-0.7-0.5-1.4-0.6-2.2c-0.1-0.9-0.2-1.7-0.2-2.6v-9.2c0-1.6-0.2-3.1-0.6-4.6c-0.3-1.1-0.8-2.2-1.4-3.2c-0.4-0.7-0.9-1.3-1.5-1.9
	c-0.3-0.3-0.7-0.7-1.1-0.9v-0.1c0.2-0.2,0.6-0.5,1.1-0.9c0.6-0.5,1.1-1.2,1.5-1.9c0.6-1,1.1-2.1,1.4-3.2c0.4-1.5,0.6-3,0.6-4.6v-9.3
	c0-0.8,0.1-1.7,0.2-2.5c0.1-0.8,0.3-1.5,0.6-2.2c0.2-0.6,0.6-1.1,1.1-1.5c0.5-0.4,1.1-0.6,1.7-0.6h1.3V3.6h-3.3
	C9.5,3.5,7.8,4.3,6.9,5.8z"/>
<polygon class="st1" points="36.5,3.6 16.3,52.6 19.8,52.6 39.9,3.6 "/>
<polygon class="st1" points="11.2,64.2 11.2,64.2 14.5,64.2 14.5,64.1 14.5,63.9 11.2,63.9 "/>
<path class="st1" d="M341.7,3.6c1.7-0.1,3.4,0.8,4.3,2.2c1.1,1.8,1.6,3.9,1.5,6v9.8c0,1.3,0.1,2.6,0.2,3.9c0.1,1.2,0.3,2.3,0.7,3.4
	c0.3,0.9,0.8,1.7,1.5,2.4c0.6,0.6,1.5,0.9,2.4,0.9v3.5c-0.9,0-1.8,0.3-2.4,0.9c-0.7,0.7-1.2,1.5-1.5,2.4c-0.4,1.1-0.6,2.2-0.7,3.4
	c-0.1,1.3-0.2,2.6-0.2,3.9v9.8c0.1,2.1-0.4,4.2-1.5,6c-0.9,1.5-2.6,2.3-4.3,2.2h-3.3v-3.5h1.3c0.6,0,1.2-0.2,1.7-0.6
	c0.5-0.4,0.9-0.9,1.1-1.5c0.3-0.7,0.5-1.4,0.6-2.2c0.1-0.9,0.2-1.7,0.2-2.6v-9.2c0-1.6,0.2-3.1,0.6-4.6c0.3-1.1,0.8-2.2,1.4-3.2
	c0.4-0.7,0.9-1.4,1.5-1.9c0.5-0.4,0.9-0.7,1.1-0.9V34c-0.4-0.2-0.8-0.6-1.1-0.9c-0.6-0.6-1.1-1.2-1.5-1.9c-0.6-1-1.1-2.1-1.4-3.2
	c-0.4-1.5-0.6-3-0.6-4.6v-9.3c0-0.8-0.1-1.7-0.2-2.5c-0.1-0.8-0.3-1.5-0.6-2.2c-0.3-0.6-0.7-1.1-1.1-1.5c-0.5-0.4-1.1-0.6-1.7-0.6
	h-1.3V3.8h3.3V3.6z"/>
<rect x="338.4" y="3.6" class="st1" width="3.3" height="0.4"/>
<rect class="st2" width="377.4" height="67.9"/>
</svg>
